HIERARCHY
ROOT joint_Root
{
	OFFSET 0.0 0.0 0.0
	CHANNELS 6 Xposition Yposition Zposition Zrotation Xrotation Yrotation 
	JOINT Hips
	{
		OFFSET 4.5925 91.4895 -427.239
		CHANNELS 6 Xposition Yposition Zposition Zrotation Xrotation Yrotation 
		JOINT Spine
		{
			OFFSET 15.7357 0.0 0.0
			CHANNELS 6 Xposition Yposition Zposition Zrotation Xrotation Yrotation 
			JOINT Chest
			{
				OFFSET 8.98455 -0.406207 0.0
				CHANNELS 6 Xposition Yposition Zposition Zrotation Xrotation Yrotation 
				JOINT Neck
				{
					OFFSET 16.3773 0.0 0.0
					CHANNELS 6 Xposition Yposition Zposition Zrotation Xrotation Yrotation 
					JOINT Head
					{
						OFFSET 6.45672 0.0 0.0
						CHANNELS 6 Xposition Yposition Zposition Zrotation Xrotation Yrotation 
						End Site
						{
							OFFSET 0.0 0.0 0.0
						}
					}
				}
				JOINT Shoulder_L
				{
					OFFSET 12.9942 -0.242716 4.98039
					CHANNELS 6 Xposition Yposition Zposition Zrotation Xrotation Yrotation 
					JOINT UpperArm_L
					{
						OFFSET 5.34809 0.0 0.0
						CHANNELS 6 Xposition Yposition Zposition Zrotation Xrotation Yrotation 
						JOINT LowerArm_L
						{
							OFFSET 24.3286 1.87007e-05 0.0
							CHANNELS 6 Xposition Yposition Zposition Zrotation Xrotation Yrotation 
							JOINT Hand_L
							{
								OFFSET 22.2916 0.0 0.0
								CHANNELS 6 Xposition Yposition Zposition Zrotation Xrotation Yrotation 
								End Site
								{
									OFFSET 0.0 0.0 0.0
								}
							}
						}
					}
				}
				JOINT Shoulder_R
				{
					OFFSET 12.9945 -0.242716 -4.98039
					CHANNELS 6 Xposition Yposition Zposition Zrotation Xrotation Yrotation 
					JOINT UpperArm_R
					{
						OFFSET -5.34813 0.0 0.0
						CHANNELS 6 Xposition Yposition Zposition Zrotation Xrotation Yrotation 
						JOINT LowerArm_R
						{
							OFFSET -24.3289 0.000322201 0.0
							CHANNELS 6 Xposition Yposition Zposition Zrotation Xrotation Yrotation 
							JOINT Hand_R
							{
								OFFSET -22.2915 -0.000108084 0.0
								CHANNELS 6 Xposition Yposition Zposition Zrotation Xrotation Yrotation 
								End Site
								{
									OFFSET 0.0 0.0 0.0
								}
							}
						}
					}
				}
			}
		}
		JOINT UpperLeg_L
		{
			OFFSET -2.19248 -6.46944 0.0
			CHANNELS 6 Xposition Yposition Zposition Zrotation Xrotation Yrotation 
			JOINT LowerLeg_L
			{
				OFFSET 39.0811 0.0 -1.23785e-05
				CHANNELS 6 Xposition Yposition Zposition Zrotation Xrotation Yrotation 
				JOINT Foot_L
				{
					OFFSET 40.9854 0.0 -1.26872e-05
					CHANNELS 6 Xposition Yposition Zposition Zrotation Xrotation Yrotation 
					JOINT Toes_L
					{
						OFFSET 11.7543 0.0 0.0
						CHANNELS 6 Xposition Yposition Zposition Zrotation Xrotation Yrotation 
						End Site
						{
							OFFSET 0.0 0.0 0.0
						}
					}
				}
			}
		}
		JOINT UpperLeg_R
		{
			OFFSET -2.19251 6.46944 0.0
			CHANNELS 6 Xposition Yposition Zposition Zrotation Xrotation Yrotation 
			JOINT LowerLeg_R
			{
				OFFSET -39.0811 -0.00228153 -0.0401928
				CHANNELS 6 Xposition Yposition Zposition Zrotation Xrotation Yrotation 
				JOINT Foot_R
				{
					OFFSET -40.9854 0.0 0.0
					CHANNELS 6 Xposition Yposition Zposition Zrotation Xrotation Yrotation 
					JOINT Toes_R
					{
						OFFSET -11.7543 0.0 0.0
						CHANNELS 6 Xposition Yposition Zposition Zrotation Xrotation Yrotation 
						End Site
						{
							OFFSET 0.0 0.0 0.0
						}
					}
				}
			}
		}
	}
}
MOTION
Frames:	4
Frame Time:	0.0333333
0.000000 0.000000 0.000000 0.000000 0.000000 -0.000000 136.327000 90.335500 135.061000 96.529900 -19.294900 4.011040 15.735700 0.000005 -0.000001 68.898000 84.127700 -68.580600 8.984550 -0.406207 -0.000000 3.210410 -4.236400 0.753298 16.377300 -0.000001 -0.000001 -1.064440 -6.674860 4.011920 6.456720 -0.000001 -0.000000 -9.368370 -7.087310 11.825400 12.994200 -0.242716 4.980390 -90.439200 1.827740 -76.485600 5.348090 -0.000007 -0.000001 -46.091100 24.556900 -44.159500 24.328600 0.000019 0.000005 8.952960 14.251000 -32.619800 22.291600 -0.000001 0.000005 14.173100 5.227950 2.009070 12.994500 -0.242716 -4.980390 88.300700 9.156720 -79.439600 -5.348130 -0.000001 -0.000004 -66.133000 19.706600 3.972980 -24.328900 0.000322 -0.000009 1.485840 7.672580 -11.002300 -22.291500 -0.000108 -0.000004 14.012300 5.284020 0.516032 -2.192480 -6.469440 -0.000000 -175.912000 -8.812790 1.397670 39.081100 -0.000007 -0.000012 -0.039245 0.067380 30.219000 40.985400 -0.000006 -0.000013 -1.788940 11.529100 -64.704100 11.754300 -0.000000 0.000003 -0.024067 -0.188866 -24.301800 -2.192510 6.469440 -0.000001 -171.133000 30.444600 151.207000 -39.081100 -0.002282 -0.040193 0.010797 -0.016975 23.787800 -40.985400 0.000008 0.000006 5.515530 2.157180 -60.858000 -11.754300 -0.000006 -0.000006 -0.025601 -0.196543 -24.615400
0.000000 0.000000 0.000000 0.000000 0.000000 -0.000000 134.431000 89.362600 138.279000 97.274200 -20.078900 4.501620 15.735700 0.000005 -0.000001 67.340500 84.161600 -67.085000 8.984550 -0.406207 -0.000000 3.027740 -4.504520 0.629818 16.377300 -0.000001 -0.000001 -1.129630 -6.495190 3.774030 6.456720 -0.000001 -0.000000 -9.672160 -6.949020 11.574500 12.994200 -0.242716 4.980390 -90.351100 1.472660 -76.590600 5.348090 -0.000007 -0.000001 -45.223200 21.282400 -46.808100 24.328600 0.000019 0.000005 9.679250 13.008600 -37.152600 22.291600 -0.000001 0.000005 15.419000 5.237160 1.769790 12.994500 -0.242716 -4.980390 88.349600 9.025840 -79.592900 -5.348130 -0.000001 -0.000004 -65.483200 19.568200 7.153960 -24.328900 0.000322 -0.000009 1.371660 7.090480 -10.985700 -22.291500 -0.000108 -0.000004 14.152600 5.297440 0.144109 -2.192480 -6.469440 -0.000000 -175.625000 -8.985310 3.817670 39.081100 -0.000007 -0.000012 -0.058272 0.096342 31.167700 40.985400 -0.000006 -0.000013 -2.448930 11.477000 -65.597000 11.754300 -0.000000 0.000003 -0.036920 -0.247605 -26.739600 -2.192510 6.469440 -0.000001 -168.365000 33.521700 148.776000 -39.081100 -0.002282 -0.040193 0.005428 -0.005345 21.538400 -40.985400 0.000008 0.000006 3.811000 1.716510 -61.450900 -11.754300 -0.000006 -0.000006 -0.024767 -0.192389 -24.443600
0.000000 0.000000 0.000000 0.000000 0.000000 -0.000000 132.129000 88.237800 141.770000 97.611100 -20.850300 4.464890 15.735700 0.000005 -0.000001 63.278700 84.434800 -62.880300 8.984550 -0.406207 -0.000000 2.201400 -5.020580 0.892939 16.377300 -0.000001 -0.000001 -0.872218 -6.280670 3.477310 6.456720 -0.000001 -0.000000 -9.401600 -6.659840 11.064800 12.994200 -0.242716 4.980390 -90.319700 1.325490 -76.439800 5.348090 -0.000007 -0.000001 -45.646600 18.563000 -47.576500 24.328600 0.000019 0.000005 10.013100 11.648100 -41.171100 22.291600 -0.000001 0.000005 16.948500 5.244750 1.572090 12.994500 -0.242716 -4.980390 88.298700 9.092810 -79.355700 -5.348130 -0.000001 -0.000004 -64.408800 20.144200 9.116520 -24.328900 0.000322 -0.000009 1.183330 6.918330 -9.740110 -22.291500 -0.000108 -0.000004 14.219000 5.300160 0.067684 -2.192480 -6.469440 -0.000000 -174.794000 -8.777910 5.256500 39.081100 -0.000007 -0.000012 -0.069238 0.104616 33.498100 40.985400 -0.000006 -0.000013 -3.391450 11.830300 -65.719300 11.754300 -0.000000 0.000003 -0.066377 -0.351975 -31.137300 -2.192510 6.469440 -0.000001 -166.654000 32.581600 146.134000 -39.081100 -0.002282 -0.040193 0.030536 -0.058071 25.117600 -40.985400 0.000008 0.000006 10.854300 1.233680 -60.682300 -11.754300 -0.000006 -0.000006 -0.023630 -0.186625 -24.205400
0.000000 0.000000 0.000000 0.000000 0.000000 -0.000000 129.284000 87.014900 145.624000 97.543000 -20.813900 4.685280 15.735700 0.000005 -0.000001 57.074500 84.625800 -56.408600 8.984550 -0.406207 -0.000000 1.298420 -5.877160 1.398240 16.377300 -0.000001 -0.000001 -0.324124 -6.475030 3.220240 6.456720 -0.000001 -0.000000 -8.920900 -6.530990 10.588000 12.994200 -0.242716 4.980390 -90.268200 1.098950 -76.282700 5.348090 -0.000007 -0.000001 -46.786700 17.157400 -47.106800 24.328600 0.000019 0.000005 9.885240 10.180100 -44.597200 22.291600 -0.000001 0.000005 18.731500 5.253970 1.330440 12.994500 -0.242716 -4.980390 88.111000 9.147790 -78.280000 -5.348130 -0.000001 -0.000004 -63.183800 19.751500 10.101500 -24.328900 0.000322 -0.000009 1.132190 8.199970 -7.899190 -22.291500 -0.000108 -0.000004 14.192900 5.283480 0.530733 -2.192480 -6.469440 -0.000000 -172.839000 -8.632450 5.667060 39.081100 -0.000007 -0.000012 -0.053461 0.067788 38.262100 40.985400 -0.000006 -0.000013 -4.689690 13.465200 -63.239800 11.754300 -0.000000 0.000003 -0.144489 -0.543751 -39.540000 -2.192510 6.469440 -0.000001 -167.030000 30.217300 145.811000 -39.081100 -0.002282 -0.040193 0.032489 -0.049689 30.430800 -40.985400 0.000008 0.000006 19.009400 -1.318970 -55.929800 -11.754300 -0.000006 -0.000006 -0.023881 -0.187909 -24.258500
